<svg id="Layer_1" data-name="Layer 1" xmlns="http://www.w3.org/2000/svg" viewBox="0 0 800 600"><title>parallax portfolio</title><path d="M503.94,122.94l-1,1a1.5,1.5,0,0,0,2.12,2.12l1-1a1.5,1.5,0,0,0-2.12-2.12Z"/><path d="M561.27,539.13c9.56-3.9,19.17-8.44,26.42-16,5.15-5.37,12.25-15.6,9.33-23.51-2.7-7.33-13.28-10.35-20.25-9.86a24,24,0,0,0-20,14.24h2.59c-3.89-6.32-10.67-10.27-18.21-9.27-7.37,1-14.15,6.28-16,13.63a19.47,19.47,0,0,0,6,18.8c6.87,6.09,17.45,3.49,24.05,9.7,1.41,1.32,3.53-.79,2.12-2.12-9-8.44-24.83-3.07-29-17.57-5.06-17.42,19.22-26.61,28.43-11.66a1.51,1.51,0,0,0,2.59,0c3.14-6.84,9.2-11.84,16.81-12.67a20.92,20.92,0,0,1,12.6,2.57c5,2.83,6.6,6.62,4.95,12.15-4.52,15.13-19.69,23.14-33.27,28.68-1.76.72-1,3.62.8,2.89Z"/><path d="M295.56,342.44c2.22-6.15,9.48-6.29,14.95-6,3.4.17,7.74.88,8.48,4.87.57,3.1-1.63,5.9-3.66,8-3.15,3.22-6.89,6-10.33,8.91-2.16,1.84-4,3.84-6.75,4.58-3,.8-5.5-.85-8.31-2.1-7.1-3.15-16.61-7.68-20-15.22-3-6.56,4-9.44,9.57-9.65a16.59,16.59,0,0,1,12.67,5c1.36,1.38,3.48-.74,2.12-2.12-6.51-6.63-17.5-8-25.16-2.43-9.13,6.69,2.66,17.32,8.78,21.39a85.88,85.88,0,0,0,15.67,7.77c5.63,2.26,7.93-.37,12.18-4,5.61-4.77,22.48-15.38,14.5-24.75-3.4-4-10.75-3.65-15.43-3.24-5.47.48-10.23,2.82-12.17,8.18-.66,1.82,2.24,2.6,2.89.8Z"/><path d="M80.26,286.43q30.38-13.42,60.2-28.07L138.64,256c-7.86,10-21.26,13-29.66,22.46A1.52,1.52,0,0,0,110,281q9,.64,18.09.79l-.4-2.95a44,44,0,0,0-23.55,16.25,1.5,1.5,0,0,0,.9,2.2,70.73,70.73,0,0,1,14.15,3.44l.4-2.95c-22.94,2.73-40.45,19.06-61.6,26.75l1.46,2.51a100.32,100.32,0,0,1,33-25.92,1.51,1.51,0,0,0-.36-2.74,54.74,54.74,0,0,0-18.81-.31l1.16,2.74a284.2,284.2,0,0,0,30.5-15.7,1.51,1.51,0,0,0-.76-2.8L80,282.57a1.5,1.5,0,0,0,0,3l24.22-.23-.76-2.8A284.2,284.2,0,0,1,73,298.24c-1.68.74-.37,3,1.16,2.74a50.1,50.1,0,0,1,17.21.31L91,298.54a102.31,102.31,0,0,0-33.6,26.39c-.86,1-.08,3.07,1.46,2.51,20.78-7.56,38.32-24,60.8-26.64a1.51,1.51,0,0,0,.4-2.95,70.73,70.73,0,0,0-14.15-3.44l.9,2.2a40.57,40.57,0,0,1,21.75-14.87,1.51,1.51,0,0,0-.4-2.95q-9.06-.15-18.09-.79l1.06,2.56c8.39-9.47,21.78-12.4,29.66-22.46a1.51,1.51,0,0,0-1.82-2.36q-29.81,14.65-60.2,28.07c-1.76.78-.24,3.36,1.51,2.59Z"/><path d="M411.36,124.15a6,6,0,0,0,6.47.27,1.5,1.5,0,0,0-1.51-2.59,3,3,0,0,1-3.44-.27,1.51,1.51,0,0,0-2.05.54,1.53,1.53,0,0,0,.54,2.05Z"/><path d="M435.59,116.19a4.39,4.39,0,0,1-4.59,2.35,1.51,1.51,0,0,0-1.5,1.5,1.53,1.53,0,0,0,1.5,1.5,7.27,7.27,0,0,0,7.18-3.83c.9-1.71-1.69-3.23-2.59-1.51Z"/><path d="M440.56,107.58a13.47,13.47,0,0,0-10.17-10c-1.88-.41-2.69,2.48-.8,2.89a10.5,10.5,0,0,1,8.08,7.86c.45,1.88,3.35,1.08,2.89-.8Z"/><path d="M422.34,96.78a24.58,24.58,0,0,0-13.82.55c-1.82.61-1,3.51.8,2.89a21.59,21.59,0,0,1,12.22-.55c1.88.46,2.68-2.44.8-2.89Z"/><path d="M402.68,104.81a6.06,6.06,0,0,0-1.45,10.5c1.58,1.12,3.08-1.48,1.51-2.59s-1.15-4.36.73-5,1-3.54-.8-2.89Z"/><path d="M392.4,127.42A10.93,10.93,0,0,0,404,136.26c1.91-.18,1.92-3.18,0-3a8,8,0,0,1-8.68-6.64c-.33-1.9-3.22-1.09-2.89.8Z"/><path d="M421.63,139.31a25.39,25.39,0,0,0,19.3-4.8c1.52-1.15,0-3.75-1.51-2.59a22.43,22.43,0,0,1-17,4.5c-1.89-.27-2.7,2.62-.8,2.89Z"/><path d="M453.5,112a11.9,11.9,0,0,1-2.61,8.9c-1.22,1.48.89,3.61,2.12,2.12a14.9,14.9,0,0,0,3.49-11c-.18-1.91-3.18-1.92-3,0Z"/><path d="M457.16,99.86l-10-12c-1.23-1.49-3.35.65-2.12,2.12l10,12c1.23,1.49,3.35-.65,2.12-2.12Z"/><path d="M437.84,85.54a23.18,23.18,0,0,0-17.24-1c-1.82.61-1,3.5.8,2.89a20.06,20.06,0,0,1,14.93.7c1.74.79,3.27-1.79,1.51-2.59Z"/><path d="M408.58,86.37a38.12,38.12,0,0,0-13.3,4.4c-1.69.93-.18,3.52,1.51,2.59a35.87,35.87,0,0,1,12.58-4.09c1.9-.26,1.09-3.15-.8-2.89Z"/><path d="M387.59,101.19a18.09,18.09,0,0,0,.31,16.46c.9,1.71,3.49.2,2.59-1.51a14.87,14.87,0,0,1-.31-13.43c.82-1.74-1.77-3.26-2.59-1.51Z"/><path d="M386,79.62a17.24,17.24,0,0,1,15-9.06c1.93,0,1.93-3,0-3A20.27,20.27,0,0,0,383.43,78.1c-.93,1.69,1.66,3.21,2.59,1.51Z"/><path d="M418.34,68.22a31.18,31.18,0,0,1,21,2c1.74.81,3.27-1.78,1.51-2.59a34.52,34.52,0,0,0-23.27-2.28c-1.87.46-1.08,3.36.8,2.89Z"/><path d="M450.41,75.51a14.91,14.91,0,0,1,16.73,12c.36,1.89,3.25,1.09,2.89-.8a17.91,17.91,0,0,0-20.43-14c-1.9.31-1.09,3.2.8,2.89Z"/><path d="M472.44,105a32,32,0,0,1-2.68,17.26c-.8,1.74,1.78,3.27,2.59,1.51A34.82,34.82,0,0,0,475.44,105c-.22-1.9-3.22-1.92-3,0Z"/><path d="M462,137a34.13,34.13,0,0,1-13.42,8.42c-1.82.62-1,3.52.8,2.89a37.5,37.5,0,0,0,14.75-9.19A1.5,1.5,0,0,0,462,137Z"/><path d="M431.55,152.32a58.77,58.77,0,0,1-21.21.56c-1.89-.29-2.7,2.6-.8,2.89a63.06,63.06,0,0,0,22.8-.56c1.89-.39,1.09-3.29-.8-2.89Z"/><path d="M372.92,93.75a38.59,38.59,0,0,0-1,24.86,1.5,1.5,0,0,0,2.89-.8,35.88,35.88,0,0,1,1-23.26c.69-1.8-2.21-2.58-2.89-.8Z"/><path d="M376.9,135.67a31.49,31.49,0,0,0,20.63,17,1.5,1.5,0,0,0,.8-2.89,28.61,28.61,0,0,1-18.84-15.67c-.83-1.74-3.41-.22-2.59,1.51Z"/><path d="M728.55,156.89c6.6-12.43,19.45-18.88,31.63-24.74l-2.2-1.69a42,42,0,0,1-13.51,17.94,1.51,1.51,0,0,0,.76,2.8l25,.69-.76-2.8a355.56,355.56,0,0,0-32.24,17.15,1.52,1.52,0,0,0,.36,2.74l22.77,4.74L760,171a256.52,256.52,0,0,0-28.51,14.57c-8.74,5.2-17.08,12.18-27.34,14l1.16,2.74a303.1,303.1,0,0,0,28.74-25,1.51,1.51,0,0,0-.66-2.51,76.23,76.23,0,0,0-21.28-2.39l.76,2.8,30.22-15.41a1.52,1.52,0,0,0-.36-2.74,50,50,0,0,0-17.28-2.55l1.06,2.56a111.81,111.81,0,0,1,14.43-12.47c1.55-1.12.05-3.73-1.51-2.59a116.37,116.37,0,0,0-15,12.94,1.52,1.52,0,0,0,1.06,2.56,47.76,47.76,0,0,1,16.48,2.44l-.36-2.74-30.22,15.41a1.51,1.51,0,0,0,.76,2.8,73.39,73.39,0,0,1,20.49,2.28l-.66-2.51a297.11,297.11,0,0,1-28.14,24.55,1.51,1.51,0,0,0,1.16,2.74c10-1.73,18-8.2,26.48-13.32a256.1,256.1,0,0,1,30.08-15.51,1.51,1.51,0,0,0-.36-2.74l-22.77-4.74.36,2.74A355.56,355.56,0,0,1,771,151.67c1.42-.66.63-2.76-.76-2.8l-25-.69L746,151a45.74,45.74,0,0,0,14.89-19.73c.53-1.34-1.16-2.2-2.2-1.69-12.66,6.09-25.86,12.91-32.7,25.81-.9,1.7,1.68,3.22,2.59,1.51Z"/><path d="M596.43,344.38c-4.06,4-6.4,9.27-9,14.26l-9.78,18.54c-1.77,3.36-5.72,8.39-4,12.47,1,2.24,3.63,3.68,5.9,2.42,1.57-.87,1.94-2.48,2.52-4a99.41,99.41,0,0,1,3.79-9.49c2.69-5.41,6-10.48,9.15-15.62,1.67-2.71,14.11-20.25,4.73-20.22a1.5,1.5,0,0,0,0,3c1.43,0-4.69,11.38-5.17,12.18-1.69,2.84-3.47,5.63-5.2,8.45-3.64,5.92-7.16,12-9.44,18.57q-.41,1.16-.75,2.34-4.35-.53-1.65-3.51c.84-1.71,1.78-3.37,2.67-5.06l5.78-11c3.69-7,6.86-15.6,12.56-21.23a1.5,1.5,0,0,0-2.12-2.12Z"/><path d="M621.6,364.4A52.61,52.61,0,0,0,628.54,350a1.52,1.52,0,0,0-1.45-1.9c-13.15-1.56-18,13.45-22.1,23-2.81,6.59-6.14,13.16-8.48,19.93-1.2,3.48-1.58,7,1.62,9.33a1.5,1.5,0,0,0,2.05-.54,184.1,184.1,0,0,1,25.73-41.19c1.22-1.48-.89-3.61-2.12-2.12a186.92,186.92,0,0,0-26.2,41.8l2.05-.54c-3.6-2.67,2.46-12.3,3.69-15.19l5.41-12.68c3.42-8,7.48-20.08,18.35-18.8l-1.45-1.9A49.93,49.93,0,0,1,619,362.89c-1.09,1.6,1.51,3.1,2.59,1.51Z"/><path d="M574.68,350c-1.65,1.76-1.08,3.54.94,4.75,2.67,1.61,6.46,2.27,9.4,3.27l10.35,3.54,20.71,7.07c3.67,1.25,10.48,5.36,14.46,3.41,2.49-1.21,2.69-4.17,1.32-6.31-2.68-4.18-10-4.76-14.25-5.92l-42.09-11.41a1.5,1.5,0,0,0-.8,2.89l26.78,7.26,13.39,3.63c2,.54,12.22,2,13.21,4q-.79,4.16-3.71,2.14l-1.88-.64L615,365.07l-13.18-4.5-13.18-4.5c-1.44-.49-11.15-4.7-11.83-4,1.32-1.41-.8-3.53-2.12-2.12Z"/><path d="M566.47,369.67c-1.65,2.2.45,4,2.38,5.06,5.94,3.2,13.43,4.95,19.82,7.13,6.64,2.26,13.33,4.37,20.12,6.14,3,.79,10.23,4.19,12.91,1.26,7-7.66-16.58-12.52-19.57-13.45q-10.25-3.19-20.57-6.14c-5.47-1.57-10.93-3.33-16.49-1.27-1.8.66-1,3.56.8,2.89,8-3,19.26,2.49,27.07,4.84q6.54,2,13.06,4c3.19,1,11.46,2.17,12.32,5.54q1.74,2.66-1.28,1.19-1.87-.41-3.73-.86-2.79-.67-5.55-1.42c-4.31-1.16-8.58-2.46-12.82-3.83s-8.47-2.84-12.68-4.35c-1.56-.56-13.22-5.2-13.18-5.25,1.16-1.54-1.44-3-2.59-1.51Z"/><path d="M540,231.16c6.45,4.07,13.86,2.07,20.47-.59,9.37-3.77,18.59-8,27.73-12.26q28.55-13.39,55.75-29.4a1.5,1.5,0,0,0-1.51-2.59q-23.95,14.05-49,26.17-12.29,5.93-24.81,11.37c-7.82,3.39-18.88,9.95-27.17,4.71-1.64-1-3.14,1.56-1.51,2.59Z"/><path d="M644.33,189.83a1.5,1.5,0,0,0,0-3,1.5,1.5,0,0,0,0,3Z"/><path d="M503.66,124.32c50-13.31,99.81-27.79,150.2-39.49,1.88-.44,1.08-3.33-.8-2.89-50.38,11.7-100.22,26.18-150.2,39.49a1.5,1.5,0,0,0,.8,2.89Z"/><path d="M644,189.37q20.71-12.81,42-24.68c1.69-.94.17-3.53-1.51-2.59q-21.26,11.88-42,24.68c-1.64,1-.13,3.61,1.51,2.59Z"/><path d="M685.2,157.38c-13.21-24-14.57-52.71-29.67-75.81-1.05-1.61-3.65-.11-2.59,1.51,15.08,23.08,16.46,51.84,29.67,75.81.93,1.69,3.52.18,2.59-1.51Z"/><path d="M648.43,76.08c9.05-.86,13.59,10,17,16.69q6.35,12.35,11.63,25.2,5,12.18,9,24.75,1.93,6.06,3.62,12.19c.6,2.17,1.52,4.57,1.52,6.83,0,3.71-2.26,5.49-5.21,7.16-16.7,9.44-33.79,18.26-50.66,27.38-16.41,8.87-32.82,17.79-49.75,25.63-8.47,3.92-17.08,7.67-26.09,10.18-4.36,1.21-9.11,2.48-13.65,2.59-6.07.15-9.39-3-12.3-8-9.12-15.51-16.69-32.17-23.35-48.86a414.6,414.6,0,0,1-16.47-50.48c-1.27-4.94-3.56-10.39,1.12-14.28,3.12-2.59,7.94-4.2,11.62-5.88A194.25,194.25,0,0,1,531.67,98C550.11,92.51,569.09,89.23,588,86l63.52-10.66c1.9-.32,1.09-3.21-.8-2.89q-32.2,5.4-64.4,10.8c-19.5,3.28-39.07,6.69-58,12.53a192.51,192.51,0,0,0-26.59,10.28c-6.24,3-13.72,5.43-12.86,13.56,1,9.3,4.66,19,7.42,27.89q4.61,14.88,10.31,29.39c7,17.83,14.81,36.29,25.07,52.53,4.16,6.59,9.33,8.94,17.06,7.91,9.76-1.3,19.12-4.54,28.16-8.35,19.41-8.19,38-18.29,56.49-28.3l29.65-16,14-7.55c4.38-2.37,9.32-4.42,13.31-7.4,7.25-5.42,2.3-15.72.23-22.63a327.27,327.27,0,0,0-11.3-31.64,296.16,296.16,0,0,0-14.21-29.87c-3.48-6.27-8.62-13.31-16.63-12.55-1.91.18-1.92,3.18,0,3Z"/><path d="M500.86,124.24c13.37,35.85,14.66,76.86,39.37,107.77,1.21,1.51,3.32-.63,2.12-2.12-24.29-30.38-25.46-71.21-38.6-106.45-.67-1.79-3.57-1-2.89.8Z"/><path d="M607.32,213.69c.47,3.93.12,9.36,1.64,13,.75,1.81,1.75,2.32,3.57,2.9,8.08,2.59,18.18,2.06,26.46,1.36,1.91-.16,1.93-3.16,0-3a93.84,93.84,0,0,1-17.74-.08q-2.59-.27-5.16-.69c-2.66-.43-3.8-1.18-4.62-4s-.78-6.49-1.14-9.54c-.23-1.89-3.23-1.92-3,0Z"/><path d="M638.66,230.34a284.45,284.45,0,0,0,28.78-23c.89-.81.25-2.73-1.06-2.56l-32.69,4.32,1.45,1.9,2.35-10.85c.41-1.88-2.48-2.69-2.89-.8l-2.35,10.85c-.18.84.42,2,1.45,1.9l32.69-4.32-1.06-2.56a278.49,278.49,0,0,1-28.18,22.52c-1.57,1.1-.07,3.7,1.51,2.59Z"/><path d="M587.69,92.51c-1.45-2.55-5.26.12-3.71,2.55,1.45,2.26,5.25,1.5,7,0s2.12-4.92-.08-6.39-5.48.21-5.13,2.87a1.55,1.55,0,0,0,1.5,1.5,1.51,1.51,0,0,0,1.5-1.5c0-.28-.16-.15,0-.3s.43-.1.36-.13c.42.16.34.93.2,1.23a2.31,2.31,0,0,1-1.8,1.08c-.23,0-.73-.08-.91,0s-.15-.05-.12,0q.23,1.63-1.4.58a1.5,1.5,0,0,0,2.59-1.51Z"/><path d="M286.35,170.44l1.32,2a1.53,1.53,0,0,0,2.05.54,1.52,1.52,0,0,0,.54-2.05l-1.32-2a1.53,1.53,0,0,0-2.05-.54,1.52,1.52,0,0,0-.54,2.05Z"/><path d="M287.07,170l0,.2a1.52,1.52,0,0,0,1,1.85c2.47.43,3.37-2,3.41-4.17.08-4-3.07-6.83-6.17-8.77A88.59,88.59,0,0,0,270,152c-5.87-2.25-12.26-4.92-18.44-6.11-2.13-.41-5-.24-5.44,2.39-.55,3.05,2.86,4.09,5.17,4.63,6.9,1.61,12.67,4.93,18.83,8.35l18.7,10.37c1.69.94,3.2-1.65,1.51-2.59l-20.4-11.31c-3.12-1.73-6.21-3.55-9.45-5-2.84-1.3-6.2-1.51-8.92-2.77-1.94-.89,1.45-.48,2.36-.2,1.71.54,3.42,1.08,5.13,1.63,3.41,1.11,6.8,2.26,10.15,3.55a107.84,107.84,0,0,1,11.07,4.91,42.27,42.27,0,0,1,4.15,2.33,11.63,11.63,0,0,1,2.39,1.9,23.91,23.91,0,0,1,2.1,5.18l1,1.85,0-.2c.43-1.88-2.46-2.68-2.89-.8Z"/><path d="M246.82,145.12c-14.35-4.73-27.84-13.57-35.9-26.61-4.61-7.46-8.44-17.54-5.76-26.3,2.42-7.92,9.85-13,16.71-16.92a101.53,101.53,0,0,1,49.21-13c14.19-.07,36,1.56,42.66,16.61l.9-2.2c-4.23,1.3-9.69,3.6-9.6,8.91.09,5.8,8.21,7.5,12.35,9.32l12.74,5.62c2.15.95,7.4,4.47,9.86,4.22,3.4-.34,6.33-6.08,7.28-8.79,3.14-9-.38-19.82-8.92-24.4-9.6-5.14-21.84-2-28.95,5.85l2.36,1.82,2.55-3.52c1.13-1.57-1.47-3.07-2.59-1.51l-2.55,3.52c-1,1.38,1.22,3.07,2.36,1.82,11-12.1,34.54-8.8,33.86,10.29-.12,3.27-1.14,7.85-3.8,10.08-3.25,2.73-9.21-1.66-12.66-3.18l-13.65-6c-2.15-.95-6.9-2.17-7.23-5.13-.42-3.82,4.84-5.23,7.4-6a1.53,1.53,0,0,0,.9-2.2C311,65.3,296.7,61.71,284.73,60.17a104.78,104.78,0,0,0-45.52,4.28c-12.13,3.94-27.05,10.16-34.27,21.31-7.53,11.63-2,27,5.4,37.25C219,135.14,232,143.4,246,148c1.84.61,2.63-2.29.8-2.89Z"/><path d="M309.17,88.33l.09-5.16-1.5,1.5c7.1-.6,13.26,2.18,19.36,5.51,2.49,1.36,5,2.77,7.51,4,.88.42,1.77.83,2.67,1.21l1.58.63q3.49.3,2.8,3.87l1.45,1.1-.68-1.75c-.7-1.78-3.6-1-2.89.8l.68,1.75a1.57,1.57,0,0,0,1.45,1.1,3.89,3.89,0,0,0,4.13-4.17c-.11-3.81-4.71-5-7.52-6.19-10.09-4.31-18.94-11.86-30.54-10.88a1.54,1.54,0,0,0-1.5,1.5l-.09,5.16c0,1.93,3,1.93,3,0Z"/><path d="M247.5,146c-1.54,7.24-3.53,17.22.51,24,3.45,5.76,10.19,10.12,16.46,12.13,12.93,4.15,27.78-2.39,31.21-16,.47-1.87-2.42-2.67-2.89-.8-3,12-16.16,17.7-27.52,13.93-5.53-1.83-11.6-5.64-14.67-10.76-3.48-5.8-1.52-15.49-.21-21.66.4-1.88-2.49-2.69-2.89-.8Z"/><path d="M235.61,161.59c-6.37,6.74-2.51,17.33,2.37,23.81,5.8,7.69,14.78,12.45,24.48,11.95l-.4-2.95-4.13,1.15a1.5,1.5,0,0,0,.8,2.89l4.13-1.15c1.59-.44,1.33-3-.4-2.95a25.45,25.45,0,0,1-19.91-8.18c-5-5.2-10.87-16-4.82-22.45,1.33-1.4-.79-3.53-2.12-2.12Z"/><path d="M217,168a38.87,38.87,0,0,0,3.35,2.95c.85,1.31.75,3.49.72,5-.06,2.65-.63,5.14-.12,7.8.86,4.5,3.66,8.3,6.81,11.51,6.44,6.56,15.21,13.34,24.89,11.69,1.9-.32,1.09-3.21-.8-2.89-9.78,1.67-21.9-8.42-26.41-16.64-2.73-5-.69-9.43-1.43-14.59-.54-3.78-2.64-4.46-4.9-7-1.3-1.43-3.42.69-2.12,2.12Z"/><path d="M266.37,172.66a2.68,2.68,0,0,0-5,1.27c-.1,1.8,1.54,3,2.8,3.83,3.07,2.15,6.43,3.8,9,6.63,8,8.81-3.08,18.36-8.69,24.89L246.68,230c-10.86,12.64-22.17,25-32.34,38.24-9.23,12-17.6,25.69-19.52,41-1.72,13.61,3,24.38,14.57,31.74,15.42,9.85,31.27,19.1,46.9,28.63,7.44,4.54,14.8,9.27,22.52,13.34,6.62,3.49,13.59,5.71,20.47,8.54,8.72,3.58,14.88,9.63,16.81,19.08,1.84,9-.26,18.09-2.8,26.74-2.78,9.47-5.69,18.92-8.67,28.33s-6.72,18.88-15,24.86c-15.83,11.48-39.39,10.43-57.18,5l.9,2.2a6.28,6.28,0,0,0-.06-7.12c-1-1.63-3.62-.13-2.59,1.51l.06,4.09a1.52,1.52,0,0,0,.9,2.2c15.14,4.6,32.09,5.53,47.29.63,14-4.5,22.19-14.35,27-27.91,2.89-8.15,5.19-16.53,7.72-24.79,2.42-7.9,5.11-15.85,5.9-24.12,1.34-13.88-3.94-26.59-17-32.56-7.07-3.23-14.54-5.31-21.47-8.9-8-4.15-15.62-9.06-23.32-13.76-15.63-9.53-31.48-18.78-46.9-28.63-8.09-5.17-13-12-13.42-21.79-.39-8.31,2-16.58,5.33-24.12,6.74-15.21,18.08-27.85,28.81-40.33,13.57-15.8,27.27-31.5,40.73-47.4,3.92-4.63,8.15-10.15,6.39-16.59a15.7,15.7,0,0,0-4.95-7.36,36.66,36.66,0,0,0-3.77-2.9c-1.41-1-5.4-2.43-6.24-3.71,1.05,1.61,3.65.11,2.59-1.51Z"/><path d="M571,294.69c1.95-6.16-8-5.49-11.39-5.24-4.83.36-5.72,6.08-2,8.75,3,2.18,9.27,2.83,11.67-.65,3-4.28-2.42-7.51-5.91-8.42a1.5,1.5,0,0,0-.8,2.89c1.36.36,4.48,1.21,4.49,3.06,0,2.26-4,1.93-5.32,1.64a5,5,0,0,1-3-1.5c-1-1.34-.3-2.45,1.26-2.77.93-.19,8.6-.21,8.08,1.45-.58,1.85,2.31,2.63,2.89.8Z"/><path d="M566,291.21c-1.85-9.22,3.39-19.11,4.66-28.21.57-4.1.7-8.24,1.19-12.34.21-1.72,1.3-3.64.47-5.27a1.5,1.5,0,0,0-2.05-.54l-.28.21a1.54,1.54,0,0,0-.3,2.36l.16.21c1.2,1.51,3.31-.63,2.12-2.12l-.16-.21-.3,2.36.28-.21-2.05-.54c-.63-1.24-1,4.86-.82,2.82-.14,1.87-.25,3.75-.41,5.62a98.92,98.92,0,0,1-2.12,14.42c-1.77,7.5-4.85,14.42-3.28,22.25.38,1.89,3.27,1.09,2.89-.8Z"/><path d="M545.22,331.9c6.69-27.38,14.82-54.64,16-83,.08-1.93-2.92-1.93-3,0C557.05,277,549,304,542.33,331.1c-.46,1.88,2.43,2.68,2.89.8Z"/><path d="M525.12,355a145.61,145.61,0,0,1,11-54.29,104.12,104.12,0,0,0,6.24-23.59c1.33-8.37,2.74-16.66,7.37-23.95,1-1.63-1.56-3.14-2.59-1.51-4.45,7-6.11,14.95-7.41,23-1.41,8.76-3.13,17-6.5,25.21A147.87,147.87,0,0,0,522.12,355a1.5,1.5,0,0,0,3,0Z"/><path d="M586.36,231.26c-17.17,11-34.51,24.58-56.1,18.47a39.92,39.92,0,0,1-12.48-5.93c-5.05-3.66-6.45-7.55-7.77-13.3-.84-3.64-3.25-5.12-5.92-7.43a18.62,18.62,0,0,1-6.41-15.45c.1-1.93-2.9-1.92-3,0a21.51,21.51,0,0,0,3.45,13.25c3.16,4.74,8.2,6.48,9.29,12.47,1.74,9.55,10.4,15.18,19,18.3a45.28,45.28,0,0,0,29.75.37c11.46-3.91,21.58-11.69,31.69-18.16,1.62-1,.12-3.63-1.51-2.59Z"/><path d="M477.91,156.62A57.36,57.36,0,0,1,488.4,176c1.23,4,1.09,9.53,5.13,11.8a1.5,1.5,0,0,0,1.51-2.59c-2.6-1.47-2.76-6.63-3.5-9.2a60.27,60.27,0,0,0-2.78-7.54,61.67,61.67,0,0,0-8.73-14c-1.22-1.5-3.33.64-2.12,2.12Z"/><path d="M474.81,131.19a102.6,102.6,0,0,1,5.36,15.55,1.5,1.5,0,0,0,2.89-.8,107.33,107.33,0,0,0-5.67-16.27c-.77-1.76-3.36-.24-2.59,1.51Z"/><path d="M557.14,336.93c-4.47-1.21-11-2.06-13.23,3.25-2,4.79,2.84,8.71,7.18,9.09,4,.35,12-.58,13-5.53,1.16-6.06-5.77-7.91-10.25-8.35-1.92-.19-1.91,2.81,0,3a16.72,16.72,0,0,1,4.06.69c2.77,1,4.94,3.9.93,6.07-1.63.88-4.87,1.18-6.58,1.16a6.92,6.92,0,0,1-3.84-.94,3.37,3.37,0,0,1-.19-5.67c2.41-1.55,5.64-.55,8.16.13a1.5,1.5,0,0,0,.8-2.89Z"/><path d="M555,335.66l.68-7.93a1.52,1.52,0,0,0-1.5-1.5,61.92,61.92,0,0,0-14.3,1.14c-1.89.37-1.09,3.26.8,2.89a58.4,58.4,0,0,1,13.5-1l-1.5-1.5-.68,7.93c-.17,1.92,2.84,1.91,3,0Z"/><path d="M523.67,357.82l11.27,0-1.45-1.9a20.23,20.23,0,0,1-5.94,11.09c-1.74,1.63-4,2.81-4.83,5.18-1.49,4.2,2.39,7.68,6.31,7.93,4.34.27,9.86-2.69,9.34-7.63-.57-5.46-6.32-7.22-10.87-8-1.89-.34-2.7,2.55-.8,2.89a29.68,29.68,0,0,1,3.73.81,8.17,8.17,0,0,1,3.69,2.05l-1,6a8,8,0,0,1-4.92.78l-2.47-4.27c.25-1.11,2.58-2.41,3.42-3.15a22.8,22.8,0,0,0,7.23-12.86,1.52,1.52,0,0,0-1.45-1.9l-11.27,0a1.5,1.5,0,0,0,0,3Z"/><path d="M497.67,355.83h2a1.5,1.5,0,0,0,0-3h-2a1.5,1.5,0,0,0,0,3Z"/><path d="M499.67,355.83l2.06-.07-1.5-1.5c-.27,2.44-3.83.12-5.32,1.37-1.25,1.05-1.22,3.14-.69,4.52,1.69,4.39,6.78,4.26,10.63,3.57,3.51-.63,5.69-3.31,4.24-6.89-1.72-4.26-6.63-4.3-10.51-3.85-1.88.22-1.94,3.17,0,3l1.74-.15c1.91-.17,1.93-3.17,0-3l-1.74.15v3c2.47-.29,6.8-.94,7.81,2.15,1.1,3.36-5.62,3.45-7.51,2.67a3.28,3.28,0,0,1-1.74-1.43c-.78-1.49-.32-1.06.39-1a5.3,5.3,0,0,0,2.62-.08,4.6,4.6,0,0,0,3.06-4.07,1.51,1.51,0,0,0-1.5-1.5l-2.06.07c-1.92.07-1.93,3.07,0,3Z"/><path d="M506.23,354.36c2.71-3,3-6.78,3.94-10.59a102.74,102.74,0,0,1,5.76-16.91l-1.69.69a69.93,69.93,0,0,0,17.43,4.33c1.91.23,1.9-2.77,0-3A67,67,0,0,1,515,324.66a1.5,1.5,0,0,0-1.69.69,110.62,110.62,0,0,0-4.62,12.33c-1.32,4.36-1.46,11.07-4.61,14.56-1.29,1.43.82,3.56,2.12,2.12Z"/><path d="M522.32,294.23c-2.51-2.76-7.22-1.39-8.62,1.87-1.76,4.1,2.32,8.12,6.25,8.42s8.57-3.2,7.73-7.55a5.44,5.44,0,0,0-8.64-3.23c-1.5,1.22.64,3.33,2.12,2.12s3.86.85,3.57,2.56c-.36,2.12-2.94,3.39-4.88,3.07-1.74-.28-4.07-2-3.46-4,.46-1.53,2.67-2.4,3.81-1.14,1.3,1.43,3.42-.69,2.12-2.12Z"/><path d="M524.12,296.52l5.29-15.74-1.85,1,11.76,3.78c1.84.59,2.63-2.3.8-2.89l-11.76-3.78a1.53,1.53,0,0,0-1.85,1l-5.29,15.74c-.62,1.83,2.28,2.62,2.89.8Z"/><path d="M413.38,276.68c-4.11-8.08,2.94-15.13,8.65-20a130.91,130.91,0,0,1,16.23-12.16c5.62-3.42,12.35-6.64,19.06-6.9,10-.39,13.78,7.3,14.32,16.08.12,1.92,3.12,1.93,3,0-.44-7.16-2.55-15-9.84-18-8.14-3.27-18,.64-25.21,4.55a112.26,112.26,0,0,0-22.82,17c-5.79,5.46-9.92,13.1-6,20.84.88,1.72,3.47.2,2.59-1.51Z"/><path d="M481.19,264.93c2.76-9.17,4.53-22.28-2.91-29.8-6.83-6.9-18.26-7.44-27.34-7a79.17,79.17,0,0,0-56.6,28.75c-1.21,1.48.9,3.62,2.12,2.12a76.36,76.36,0,0,1,47.2-27.11c8.8-1.35,19.13-1.86,27.41,1.94,11.69,5.36,10.36,19.86,7.22,30.27-.56,1.85,2.34,2.64,2.89.8Z"/><path d="M419.65,276.34c-5.66-.14-11.83-1.08-16.53-4.48-6.23-4.5-4.36-11.61-7.34-17.77-5-10.36-18.26-15.32-28.93-16.71-13.07-1.7-22.83,4.54-30.78,14.37-3.77,4.65-7.18,9.6-10.69,14.44s-5.85,8.74-3.39,14.63a96.35,96.35,0,0,0,20.15,29.95A44.28,44.28,0,0,0,355,319.81a55.77,55.77,0,0,0,6.94,2.33c3.09.92,5.32,1.15,5.49,5.81.06,1.6-.91,3.21-.81,4.91.81,12.72,17.88,11.54,26.31,14.88,6,2.38,11.29,6.28,17.42,8.44,6.87,2.41,14.37,2.52,21.56,2.51,5.64,0,11.64-.36,15.55-5s4.3-11.1,5-16.75c1-8.58,2.54-18.3,1.52-26.92-.45-3.81-3.23-7.23-7.18-5a1.5,1.5,0,0,0,1.51,2.59c3-1.72,2.6,10.41,2.54,11.78q-.19,4.88-.6,9.75c-.51,6-.76,12.48-2.73,18.2-2.49,7.21-8.78,8.3-15.59,8.31-6.35,0-12.94,0-19.07-1.86-5.39-1.62-10.09-4.7-15.09-7.17-5.16-2.55-10.34-3.44-15.92-4.58-3-.62-6-1.39-8.47-3.36-3.82-3-3.4-5.57-3-10,.31-3.73,0-6.18-3.6-8.1s-7.82-2.24-11.48-4a43.79,43.79,0,0,1-12.5-9.54c-6.73-7.14-12.06-15.9-16.57-24.59-2.3-4.43-2.89-7.83-.22-12,1.64-2.59,3.65-5,5.45-7.52,3.44-4.73,6.79-9.58,10.88-13.77,9.92-10.15,22.63-10.82,35.48-5.93,5.75,2.19,11.61,5.69,14.77,11.14,2.76,4.75,1.55,10.5,4.38,15.22,4.53,7.54,14.62,9.54,22.72,9.74,1.93,0,1.93-3,0-3Z"/><path d="M450.15,322.12c7.46-1.88,12.79-7.17,17.44-13,3.65-4.6,6.72-9.12.86-13.3-6.77-4.83-16.11-6.89-24-8.91-9.6-2.46-19.27-4.64-28.18-9.12v2.59l1.5-.72c1.74-.84.22-3.42-1.51-2.59l-1.5.72a1.51,1.51,0,0,0,0,2.59c11.94,6,25.12,8,37.77,11.88a77.68,77.68,0,0,1,10.51,4c2.71,1.29,3.23,1.38,4.31,4.4,1.18,3.3.45,3.39-1.53,5.9-4.41,5.61-9.3,10.9-16.46,12.7-1.87.47-1.08,3.37.8,2.89Z"/><path d="M459.53,316.22a31.91,31.91,0,0,1,15.78-17.13l-2.05-.54a22.82,22.82,0,0,1,3.67,10.71,21.94,21.94,0,0,1-.2,4.82,14.55,14.55,0,0,1-.52,2.62q-1.21,2.06,1,3.68l-1.45,1.1H476c1.93,0,1.93-3,0-3h-.24a1.53,1.53,0,0,0-1.45,1.1,1.93,1.93,0,0,0,.49,2,1.44,1.44,0,0,0,1.46.39c3.23-1.32,3.53-6.88,3.69-9.87a25.57,25.57,0,0,0-4.1-15.1,1.54,1.54,0,0,0-2.05-.54,35,35,0,0,0-17.16,18.93c-.7,1.8,2.2,2.58,2.89.8Z"/><path d="M466.33,327.31a21.24,21.24,0,0,0-1.39,10.21,1.51,1.51,0,0,0,.74,1.3c4.49,2,8.86,1,12.67-2.07,5-4,8.73-9.7,13.5-14,8.1-7.37,18.46-16.87,16.08-29.14-1.13-5.82-5.34-10.28-9.29-14.41A132.53,132.53,0,0,0,484.31,266c-9.53-7.41-20.44-12.73-32.69-13-1.93,0-1.93,3,0,3,10.71.21,20.41,4.6,28.93,10.87a112.07,112.07,0,0,1,12,10.37c3.92,3.85,8.49,7.92,11,12.86,6.09,11.91-5.21,22.63-13.21,29.9a139.05,139.05,0,0,0-10.81,11.35c-1.87,2.12-4.56,5.2-7.54,5.37l-4.23-.87v-1.67c-.3-1.73.82-4.44,1.45-6.08.7-1.8-2.2-2.58-2.89-.8Z"/><path d="M471.33,324.77c8.82-4.46,15.83-13,21-21.34s3.71-16.84-3.75-23c-4.13-3.43-9.2-5.46-14-7.87a145.24,145.24,0,0,1-15.1-8.84c-5-3.38-9.65-7.26-14.48-10.93-4-3-8.1-5.25-13.21-5.06-1.92.07-1.93,3.07,0,3,9.36-.35,17.46,9.6,24.73,14.6s15,8.89,22.82,12.9c10.18,5.21,17,13.42,9.94,24.4-4.89,7.62-11.26,15.45-19.46,19.58-1.72.87-.21,3.46,1.51,2.59Z"/><path d="M484.63,264.77c-7.56-5.48-15.07-11-22.68-16.45-5.84-4.15-12-7.92-19.41-6.28-1.88.42-1.09,3.31.8,2.89,8.27-1.84,15.43,4.77,21.63,9.26l18.15,13.16c1.57,1.13,3.06-1.47,1.51-2.59Z"/><path d="M422.74,231.69l-.28,1.2,1.69-.69a59.35,59.35,0,0,0-50.6,7.06,1.52,1.52,0,0,0,.36,2.74l2,.45c1.88.42,2.68-2.47.8-2.89l-2-.45.36,2.74a56.42,56.42,0,0,1,48.29-6.76,1.53,1.53,0,0,0,1.69-.69,2.85,2.85,0,0,0,.69-2.71c-.21-1.9-3.21-1.92-3,0Z"/><path d="M386.41,243l-1.44-1.5-.9,2.2a70.79,70.79,0,0,1,26.29-1.47c1.91.25,1.89-2.76,0-3a73.08,73.08,0,0,0-27.09,1.57,1.51,1.51,0,0,0-.9,2.2,6.4,6.4,0,0,0,2.52,2.57c1.6,1.09,3.1-1.51,1.51-2.59Z"/><path d="M352.25,241.94c-5.18,6.4-.64,14.53,2.9,20.6a90.79,90.79,0,0,0,20.06,23.83c15.83,13.26,35.56,20.33,55.16,25.92,4.9,1.4,9.88,3.06,14.89,4,2.9.54,6.35.81,8.89-1,5.91-4.23.55-11.67-4.85-12.9-4.57-1-9.47.11-14.11-.2a57.08,57.08,0,0,1-17.59-4.35c-10.5-4.27-20.06-10.76-29.33-17.19-9.1-6.31-19.65-14.17-22-25.72-1-5,.62-10.94-2.82-15.21-2.06-2.55-5.08-3.71-8.18-2.55-1.79.67-1,3.57.8,2.89,7.26-2.72,6.55,8.63,6.87,12.46a26.9,26.9,0,0,0,2.29,8.8c2.8,6.21,7.74,11.25,12.94,15.52,11.87,9.75,25.81,19,40.2,24.5A58.72,58.72,0,0,0,442,305.14c2.58-.1,5.25-.4,7.7.57C453,307,453.38,307.88,452,311c-1.18,2.58-.79,2.72-3.16,2.71-4.23,0-8.69-1.81-12.73-2.92-16.63-4.58-33.39-9.78-48.16-18.92a89.72,89.72,0,0,1-22.31-19.46,88,88,0,0,1-8.28-12.08c-2.52-4.42-6.84-11.44-2.95-16.25,1.2-1.49-.91-3.62-2.12-2.12Z"/><path d="M415.33,306.09c-3,.44-3.79,3.44-4.83,5.88l-3.4,8c-.38.89-1.34,2.47-1.15,3.55.4,2.3,4.56,4.81,6.44,5.56,2.67,1.07,4-.7,6.12-2.42l5.6-4.66c1.81-1.5,4.83-3.19,6-5.23a3.68,3.68,0,0,0-.42-4.5c-4.77-5.68-14.18,4.55-17.7,7.2l2.26,1.3c-.13-5.4,7.5-17.34-3-18.23a1.53,1.53,0,0,0-1.5,1.5,69.69,69.69,0,0,1-3.48,16.63c-.62,1.83,2.28,2.62,2.89.8A73,73,0,0,0,412.76,304l-1.5,1.5c5.23.44-.1,12.56,0,15.23,0,1,1.3,2,2.26,1.3l5.76-4.34c.92-.69,2.85-2.65,4-3q6,.11,2.24,2.23l-2.1,1.75-4.9,4.08c-1.2,1-3.47,3.5-5.27,3.38L410.33,324a3.61,3.61,0,0,1,.12-4.34c.55-2.25,3.15-10.31,5.69-10.69,1.9-.28,1.09-3.17-.8-2.89Z"/><path d="M424.53,329.19c1.94-4,5.82-12.36,10.88-12a11.47,11.47,0,0,1,2.69.91c2.23.84,3.12.53,2,3.09s-2.35,1.56-4.75,2.42c-7.42,2.65-1,9.58,1.62,13.49l1.3-2.26c-1.43-.08-2.59.58-4,.2-2.33-.64-3.6-4.65-4.75-6.77a1.51,1.51,0,0,0-2.36-.3c-3,3-7.72,10.29-11.33,4.61l-.54,2.05a79.64,79.64,0,0,0,11.79-8.15c1.49-1.23-.65-3.35-2.12-2.12A75.08,75.08,0,0,1,413.79,332a1.52,1.52,0,0,0-.54,2.05c1.48,2.33,3.48,5,6.55,4.39,3.66-.67,7-5.94,9.48-8.39l-2.36-.3c1.33,2.46,2.74,7.26,5.42,8.61,2.16,1.09,3.7-.68,5.89-.56a1.51,1.51,0,0,0,1.3-2.26c-.91-1.38-2.71-3.2-3.19-4.82q-2.86-2.62,1.74-4.66l1.18-.07c1.5-.5,3.07-.26,4.42-1.31,2.57-2,2.14-5.16-.18-7.18s-8-4.65-10.94-3.58c-4.65,1.66-8.67,9.67-10.63,13.71-.84,1.73,1.75,3.25,2.59,1.51Z"/><path d="M432.87,319.52l-4.06,4.35a1.52,1.52,0,0,0,1.06,2.56,11.72,11.72,0,0,0,10.06-5.26,1.51,1.51,0,0,0-.23-1.82,7,7,0,0,0-7.76-1.15c-1.76.78-.24,3.36,1.51,2.59a3.86,3.86,0,0,1,4.12.68l-.23-1.82a8.62,8.62,0,0,1-7.47,3.78l1.06,2.56,4.06-4.35c1.32-1.41-.8-3.54-2.12-2.12Z"/><path d="M372.62,397.62c-4.46,1.35-9.87.06-13.66,3.35-3,2.6-3.74,7-3.23,10.7.68,5,3.82,9,6,13.4a22.54,22.54,0,0,1-.37,21.65c-.7,1.27.74,2.88,2.05,2.05,2.33-1.48,3.54-3.45,4.79-5.86,2.24-4.31,4.32-6,9.48-6.3,9.24-.46,18.55-.31,27.8-.46,8.54-.14,18,.78,26.43-.7,5.11-.9,8.57-4.12,8.59-9.47,0-5.84-3-12.32-5.64-17.43-2.95-5.78-7.32-10.43-13.65-12.39-7.4-2.28-15.79-1.4-23.41-1-9.34.48-18.64,1.47-27.89,2.84-1.9.28-1.09,3.17.8,2.89,8.33-1.24,16.71-2.13,25.12-2.63,7.2-.42,15.06-1.24,22.2.21,7.33,1.49,11.82,6.38,14.88,12.92,2.63,5.6,8.76,18.5-.44,20.91-6.75,1.77-15.08.66-22,.77l-22.83.38c-5.14.08-12.79-1.21-17.39,1.76-4.1,2.64-4.26,8.4-8.32,11l2.05,2.05a25.63,25.63,0,0,0,.37-24.68c-2.37-4.63-6-9.11-5.75-14.59.35-8.65,8.94-6.66,14.84-8.45,1.84-.56,1.06-3.45-.8-2.89Z"/><path d="M432.55,412.72c3.62.62,7.33,1.08,10.92,1.88,5,1.11,7.17,3.61,9.5,8,3.19,6,9,19.39,2.16,24.42-5.59,4.1-12.82,5.54-19.5,6.72-8.2,1.44-16.49,2.84-24.82,3.11-5.07.17-11-1.1-15.87.88a7.51,7.51,0,0,0-3.69,2.86,7.19,7.19,0,0,0-1,2.49c-.39,1.81.74,3.38-1.7.81-2.09-2.2-.92-2.45-.77-5.2a13.09,13.09,0,0,0-.11-2.77,18,18,0,0,0-2-5.62c-2.57-4.9-7-9.27-6.22-15.21.25-1.91-2.75-1.89-3,0-.82,6.34,3.51,11,6.34,16.17,2.48,4.56,1.48,7.54,1.12,12.43-.17,2.31.47,4.72,2.55,6,6.74,4.3,5.92-6.87,8.8-8.87,3.19-2.21,9.09-1,12.67-1a110.92,110.92,0,0,0,15.34-1.2c8.58-1.17,17.7-2.16,25.85-5.24,5.65-2.13,12.45-5.47,12.32-12.39-.15-7.8-3.34-16.39-7.55-22.89-4.66-7.2-12.72-7-20.54-8.33-1.89-.32-2.7,2.57-.8,2.89Z"/><path d="M526.58,438.15c-3.8,1.36-5.7,5.67-3.32,9.19s7.88,3.26,11.16,1.35c3.08-1.79,3.69-6.06,2-9-2.07-3.57-6.71-4.34-10.38-3.2-1.84.57-1.05,3.46.8,2.89a6.56,6.56,0,0,1,5.81.58,4,4,0,0,1,1.28,5.16c-1,1.79-4.54,2.24-6.36,1.78a3,3,0,0,1-.16-5.84c1.81-.64,1-3.54-.8-2.89Z"/><path d="M525.41,423.31c-12.52,4.61-17.39,18.33-11.38,30.1,6.43,12.59,22,18.43,35.33,19.42,6.48.48,13.38-.48,18.73-4.41s8-10.27,9.59-16.6c1.51-6.18,2.64-13.22.15-19.29-2.6-6.34-8.7-9.5-14.76-11.88-15-5.9-34.38-8.27-45.24,6.34-1.15,1.55,1.45,3,2.59,1.51,10.48-14.1,30.52-10.14,44.33-3.94,7.92,3.56,12,9.3,11.43,18.13-.45,7.2-2.56,16.13-7.71,21.43-10,10.27-29.33,5.63-40.27-.59-6.48-3.68-11.94-9.55-13.5-17a17.73,17.73,0,0,1,11.5-20.3c1.8-.66,1-3.56-.8-2.89Z"/><path d="M505.11,444.65a20.74,20.74,0,0,0,2,14l2.36-1.82a19.12,19.12,0,0,1-4.12-8.95c-.35-1.9-3.24-1.09-2.89.8A22,22,0,0,0,507.3,459c1.13,1.36,3.11-.37,2.36-1.82A17.4,17.4,0,0,1,508,445.45c.38-1.88-2.51-2.69-2.89-.8Z"/><path d="M514.21,461.66a1.73,1.73,0,0,1-1.37.17,1.51,1.51,0,0,0-1.3,2.26,32.4,32.4,0,0,0,9.09,8.15l.76-2.8a10.25,10.25,0,0,1-8.59-4.43c-1.09-1.58-3.69-.08-2.59,1.51a13.38,13.38,0,0,0,11.18,5.91,1.51,1.51,0,0,0,.76-2.8,28.55,28.55,0,0,1-8-7.08l-1.3,2.26a4.62,4.62,0,0,0,2.89-.58c1.72-.88.2-3.47-1.51-2.59Z"/><path d="M532.15,473.89a3.55,3.55,0,0,0-2.9-1.14,1.51,1.51,0,0,0-.4,2.95l6.88,2.72.4-2.95a21,21,0,0,1-10-2.57c-1.7-.92-3.21,1.67-1.51,2.59a24.3,24.3,0,0,0,11.54,3c1.8,0,1.89-2.35.4-2.95l-6.88-2.72-.4,2.95.78.26a1.5,1.5,0,0,0,2.12-2.12Z"/><path d="M555,475.42l-9.49-1.14c-1.68-.2-2,2.6-.4,2.95a26.38,26.38,0,0,0,8.65.43c1.88-.22,1.94-3.17,0-3l-5.42.48-2.71.24-.9.08q-1.86-.28-1.18,2.11c1.9-.31,1.09-3.2-.8-2.89-2.08.34-1.87,3.14-.06,3.73,1.36.45,3.34-.07,4.75-.19l6.32-.56v-3a23.83,23.83,0,0,1-7.86-.33l-.4,2.95,9.49,1.14c1.91.23,1.9-2.77,0-3Z"/><path d="M512.66,440.39c-8.37-1.83-17.54-2.9-25.54-6-4.23-1.65-9.79-6.34-13.23-.85l2.74.36c-.9-2.18-2-2.94-4.14-3.95-1.2-.57-5.36-1.49-.36-3.25,1.27-.45,5.28,1.27,6.64,1.6l-.66-2.51-1.35,1.59c-.64.75-.56,2.33.66,2.51a176.75,176.75,0,0,1,35.86,9,1.5,1.5,0,0,0,1.69-.69,5.29,5.29,0,0,0,.8-3.13c0-1.93-3-1.93-3,0l-.39,1.62,1.69-.69a176.75,176.75,0,0,0-35.86-9l.66,2.51,1.35-1.59a1.52,1.52,0,0,0-.66-2.51c-3.21-.77-11.33-4.27-13.57.3-2.67,5.46,6.45,5.87,7.74,9a1.52,1.52,0,0,0,2.74.36c1.19-1.91,15.36,3.86,17.54,4.35,5.94,1.33,11.89,2.61,17.84,3.91,1.88.41,2.69-2.48.8-2.89Z"/><path d="M272,273c-.84,4.85-1.91,18.19,6.23,17.49a1.54,1.54,0,0,0,1.5-1.5,155.91,155.91,0,0,0-2.16-28.25,1.5,1.5,0,0,0-1.85-1c-7.56,2.9-3.94,16.26-3.26,22,.22,1.89,3.22,1.92,3,0-.42-3.57-3.54-17.38,1.06-19.15l-1.85-1a151.4,151.4,0,0,1,2,27.45l1.5-1.5c-5.32.46-3.8-11.05-3.34-13.69.33-1.89-2.56-2.7-2.89-.8Z"/><path d="M283.64,234.25a5.22,5.22,0,0,0-3.57.69c-1.13.5-.81,2,0,2.59,5.68,4,11-.68,15.36-4.26A135.15,135.15,0,0,1,319,217.76a1.54,1.54,0,0,0,.54-2.05c-3.72-8.29-12.24-1.87-17.2,1.27-8,5.1-17.23,9.65-23.06,17.39l2.74,1.16.45-2.13c.4-1.88-2.5-2.69-2.89-.8l-.45,2.13a1.51,1.51,0,0,0,2.74,1.16c4-5.33,9.84-8.62,15.38-12.13,3.66-2.32,16.78-13,19.7-6.53l.54-2.05a129.64,129.64,0,0,0-16.77,10.28c-4.63,3.34-13.35,13.6-19.12,9.49v2.59l2.06-.28c1.93.13,1.92-2.87,0-3Z"/><path d="M335.44,197.47a6.35,6.35,0,0,0,5,8,1.55,1.55,0,0,0,1.85-1c2.69-6.78,10.12-9.25,16.58-11,8-2.23,16.15-4.21,24.22-6.31l11.47-3c2.58-.67,7.54-.94,9.58-2.95,2.62-2.58-.44-5.63-2.87-6.77-4.81-2.25-10.36-.48-15,1.24-7.78,2.85-15.46,6-23.14,9.11q-10.81,4.4-21.52,9c-3.4,1.47-7.37,2.64-10.51,4.61-1.5.94-2.21,1.57-2.32,3.37s2.88,1.92,3,0c.09-1.42,6.5-3.28,7.84-3.87q4.82-2.11,9.66-4.16,9.94-4.23,20-8.25c5.91-2.37,11.83-4.78,17.82-7,2.69-1,5.64-2.15,8.55-2.17,1.36,0,6.51.26,5.84,2.88-.12.45-4.32,1.12-4.78,1.24-12.85,3.34-25.76,6.51-38.57,10-7.67,2.11-15.54,5.25-18.67,13.14l1.85-1-2.93-4.34c.43-1.88-2.47-2.68-2.89-.8Z"/><path d="M242.67,500.07c3.8,10.77,17.68,13.87,27.42,16.64a222.43,222.43,0,0,0,43.44,7.4c31.52,2.49,63.49.83,95-1,15.08-.87,30.44-1.41,45.27-4.54,11.71-2.47,24.74-6.74,32.31-16.64,6.35-8.31,7.81-20.43.38-28.56-6.34-6.94-16.78-9.11-25.78-7.9-10,1.35-21.13,7.34-22.89,18.15s6.64,17.58,16.76,17.5c9.1-.07,20.34-6.67,17.58-17.34-2-7.57-14-10.6-17.15-2.26-3.62,9.55,8.1,15.14,15.68,14.25,6.46-.76,12.67-3.51,19-5.09a187.34,187.34,0,0,1,22.92-4.14c27.79-3.39,56-2.15,83.67-6.38,27.88-4.25,60.3-14.64,70.28-43.92,5.24-15.38,6.87-32.38,9-48.42q3.56-27,5-54.17a1.45,1.45,0,0,0-.74-1.3,17.84,17.84,0,0,0-12.69-.82c-1.85.54-1.06,3.44.8,2.89a11.91,11.91,0,0,1,6.07-.64c2.79.66,3.07,1,3.35,3.74s-.37,6-.56,8.73Q676,356.48,675,366.63q-1.92,19.13-4.92,38.14c-1.7,10.79-3.17,22-7,32.25-4.39,11.87-12.69,20.37-23.66,26.44C600,485.28,552.23,478.22,509.21,484a190.67,190.67,0,0,0-31.06,6.92c-5.84,1.81-13.65,4.06-18.38-1.24-1.73-1.94-3.08-5.12-1.73-7.63,2.78-5.15,10.1-1.88,11.23,2.56,3.73,14.69-23.82,18.72-28.1,5.74-4.08-12.4,9.87-20.58,20.14-21.9,8.95-1.15,20,1.39,25,9.65,6.75,11.28-1.86,24-11.61,29.87-10.33,6.21-23,8.46-34.81,9.82-12.36,1.42-24.84,2-37.25,2.68-27.16,1.44-54.57,2.66-81.76,1.14a242.35,242.35,0,0,1-41.16-5.52,171.24,171.24,0,0,1-19.22-5.6c-5.91-2.12-12.65-4.79-14.91-11.21-.64-1.81-3.54-1-2.89.8Z"/><path d="M670.62,420.95c28.19-18.61,58.12-38.77,72.07-70.89,12.57-28.94,6.48-62.54-17.59-83.59-1.45-1.27-3.58.85-2.12,2.12,24.57,21.49,29.32,55.73,15,84.42-14.56,29.26-42.44,47.88-68.92,65.35-1.6,1.06-.1,3.66,1.51,2.59Z"/><path d="M722.66,266.44c-3.84-5.49-5.24-11.68-11.18-15.52a23.28,23.28,0,0,0-7-2.87c-3.59-.93-6.18-1.12-7.94-5.23-.7-1.63-1.15-3.2.48-4.48.87-.68,4.2-1,5.27-1.14a52.48,52.48,0,0,1,7.65-.67c2.08,0,5.9-.33,7.58,1,4.55,3.56,1,4.24.81,6.81a12.62,12.62,0,0,0,1.49,6.91c.76,1.68,1.61,3.34,2.41,5l1.61,3.33q2.52,3.18-1.32,5.49c-1.61-1.08-3.11,1.52-1.51,2.59a4.4,4.4,0,0,0,6.46-1.85c2-4-1.75-9.24-3.44-12.74-.71-1.48-2.47-4.22-2.61-5.79-.19-2,1-4,1.12-5.93a6,6,0,0,0-.94-4c-2.67-4-8.29-3.88-12.54-3.74a57.48,57.48,0,0,0-8.43.92c-1.77.32-5.67.5-7.07,1.93-2.28,2.33,0,8,1.59,10.21,2.74,3.79,7.35,3.61,11.34,5.11,7.92,3,9.23,10,13.58,16.22,1.1,1.57,3.7.07,2.59-1.51Z"/><path d="M659.24,319.31c1.71,4.18,3.48,12.59,8.29,14.51,2.86,1.14,5.51-.56,6.66-3.19a9.55,9.55,0,0,0,.28-6.11c-1-4.31-1.85-6.8-.62-11.2s0-7.91-3.75-10.63c-4.53-3.29-10.85-4.17-16.32-3.75-3.6.28-11,1.14-13.2,4.57-1.95,3,1.15,6.75,3.57,8.33s4.95,2,7.54,2.79c3.18,1,5.85,3.48,9,4.1,1.89.37,2.69-2.52.8-2.89-2.49-.49-4.88-2.84-7.4-3.65-2-.63-13.54-2.87-10.27-7.49,1.48-2.08,8.52-2.68,10.76-2.79a25,25,0,0,1,11,1.73c4.48,1.9,6.36,5.33,4.91,10.19a12.27,12.27,0,0,0-.46,6.4c.31,1.49,1,2.89,1.35,4.35.63,2.35,1.34,8.43-4.68,4.56-1.95-1.25-3.71-8.52-4.58-10.64-.72-1.76-3.63-1-2.89.8Z"/><path d="M150.48,445.9c-.48-3.2-2.66-5.07-5.32-6.67-1.55-.93-3.23-1.66-4.75-2.66-4.28-2.81-3.93-6.25-3-10.93a302.48,302.48,0,0,1,10.73-40c1.87-5.54,3.45-13.81,7.89-17.85,5.9-5.37,17.5-2.79,24.36-1.24,13.3,3,26.07,8.49,38.83,13.21,13.2,4.88,26.47,9.61,39.61,14.65,6.93,2.66,12,6.06,13.34,13.85,1.19,7-1.33,13.81-4.54,19.93-6.28,11.93-13.11,23.54-19.27,35.55-2.85,5.56-5.73,11.11-8.83,16.55-2.19,3.84-3.48,8.68-8.53,5.35-2.16-1.43-3.92-3.65-6.11-5.15-10.27-7.07-23-9.8-34.59-14.08a303.14,303.14,0,0,1-43.16-20.07c-1.68-.95-3.2,1.64-1.51,2.59a308.5,308.5,0,0,0,42.14,19.73c13.11,5,28.85,7.74,39.46,17.5,2.67,2.45,6,6.74,9.84,3.66,2-1.66,3.29-5,4.58-7.2,2-3.52,4-7.1,5.85-10.69,7.44-14.15,15.27-28.09,22.72-42.22,5-9.41,8.29-21.91,1-31.11-4-5-10.45-6.67-16.16-8.78L231,381c-15.27-5.65-30.51-12.24-46.26-16.41-10.44-2.76-27.41-6.73-33.82,5.07-3.85,7.09-6,15.63-8.35,23.29q-3.89,12.6-6.76,25.47c-1.18,5.29-4.27,13-.4,17.87,3.19,4,11.29,4.84,12.14,10.42.29,1.9,3.18,1.09,2.89-.8Z"/><path d="M157,374.13c21.31-.59,41.81,5.43,61,14.21,9.23,4.22,18.19,9,27,14,4.25,2.41,9.3,4.55,13.12,7.59,1,.78,2.78,1.8,2.23,3.51-.22.7-2.43,1.9-3,2.37l-7.57,5.92c-1.52,1.19.62,3.3,2.12,2.12l8.33-6.51c1.3-1,3.52-2.23,4-4,.8-3-2.48-4.72-4.56-6-11-6.59-22.19-12.89-33.69-18.53-21.58-10.57-44.72-18.35-69-17.68-1.93.05-1.93,3.05,0,3Z"/><path d="M139.47,439.66a249.58,249.58,0,0,0-60.85,26c-6.82,4.08-14.57,8.42-13.11,17.61s9.79,15.6,16.67,21c16.57,13,33.48,26.06,52.88,34.54,9,3.92,18.63,7.18,28.45,7.9,10.46.76,19.44-2.72,27.62-9.07,18.54-14.38,33.57-34,44.62-54.59.91-1.7-1.68-3.22-2.59-1.51a181.53,181.53,0,0,1-33.75,44.79c-6.85,6.61-14.4,13.74-23.8,16.37-10.09,2.83-21,.08-30.66-3.22-17.84-6.1-33.67-16.83-48.62-28.07-7.37-5.54-15.48-11-21.8-17.72-3.34-3.58-6.59-8.31-6.14-13.45.54-6.23,7-9.11,11.74-12a246.49,246.49,0,0,1,60.13-25.74,1.5,1.5,0,0,0-.8-2.89Z"/><path d="M107.56,462.28c-3.72,1.62-3.7,6.12-2.17,9.37,2.69,5.71,9.13,9.31,14.3,12.41q24.4,14.66,48.87,29.19l11.8,7c3.21,1.92,6.68,4.71,10.29,5.85s6.61-.93,5.38-4.87c-1.77-5.67-7.64-9.78-12.18-13.11-7.71-5.65-15.47-11.23-23.21-16.84-8.27-6-16.47-12.15-24.86-18-7.48-5.19-15.33-9.7-24.32-11.6-1.88-.4-2.69,2.49-.8,2.89,16.55,3.5,30.28,16.08,43.62,25.76l21,15.23c2,1.45,21.56,14.63,16.7,17.8-1.15.75-10.74-6.11-11.79-6.73l-11-6.54-22.75-13.59-23.59-14.09c-2.54-1.52-22.35-13.9-13.81-17.61,1.77-.77.24-3.35-1.51-2.59Z"/><path d="M119.75,454.76c-2.51,3.87-1.15,8.38,2.14,11.33,2.23,2,5.18,3.09,7.86,4.34a115.59,115.59,0,0,1,10.94,5.86c13.72,8.29,25.95,18.87,38.38,28.94,4.09,3.31,8.86,8.62,14.53,8.77,4.24.12,7.78-2.74,7.66-7.16-.15-5.42-5.2-8.59-9.19-11.3q-10-6.82-20.4-13.16a544.53,544.53,0,0,0-49.2-26.75c-1.73-.83-3.26,1.75-1.51,2.59q21.05,10.1,41.2,21.94,9.65,5.69,19.06,11.79,4.7,3,9.34,6.19a35.85,35.85,0,0,1,5,3.67c2.9,2.83,4.2,9.15-2.37,9.1-3.79,0-7.79-4.4-10.54-6.63l-9.33-7.55c-5.19-4.21-10.38-8.42-15.71-12.45a170.93,170.93,0,0,0-17.67-11.91c-4.79-2.76-22.61-8.29-17.57-16.07,1.05-1.62-1.54-3.13-2.59-1.51Z"/><path d="M135.31,450.46c-2.92,4.33-.59,8.72,3.08,11.68,5.85,4.7,13,8.28,19.45,12,14.22,8.12,28.69,15.91,41.26,26.52a1.54,1.54,0,0,0,2.12,0c3-2.89,0-7.07-1.94-9.69-3.83-5.1-9.26-8.72-14.62-12-14.8-9.12-29.76-18-44.64-27a1.5,1.5,0,0,0-1.51,2.59l34.18,20.66c4.78,2.89,9.64,5.66,14.28,8.76,1.77,1.18,15.53,11.27,12.13,14.57h2.12c-9.63-8.13-20.33-14.72-31.26-21-5.55-3.17-11.14-6.27-16.64-9.51-4.18-2.46-19.88-9.45-15.42-16.07,1.08-1.61-1.52-3.11-2.59-1.51Z"/><path d="M115.55,489.67c-3.67,2.65-9.54,1.9-12.44,5.72s-.73,8.58,2.52,11.36c5.2,4.45,12.35,7.47,18.41,10.55s12.64,7,19.26,8.78c9.28,2.56,14.2-11.27,9.51-17.84-3.32-4.66-9.48-6.85-14.43-9.21l-22-10.52c-1.73-.83-3.26,1.76-1.51,2.59,9,4.31,18.15,8.51,27.12,12.94,3.94,1.95,9.51,4.58,9.84,9.65.15,2.31-1,5.26-2.22,7.18-2.38,3.85-6.58,2-9.84.55a268.47,268.47,0,0,1-25.55-12.85c-4.2-2.39-15.4-9.16-5.46-13.2,2.87-1.16,5.74-1.25,8.34-3.12,1.55-1.12.06-3.72-1.51-2.59Z"/><path d="M143.87,236c1.88,3.47,7,18.1,13.51,13.17,2.71-2.06.85-5.6,0-8.17a71.55,71.55,0,0,0-6.79-14.36,1.51,1.51,0,0,0-2.59,0c-2.78,6-9.84,7.82-15.9,6.14-7-1.95-12.12-8-16.64-13.34-10.24-12-20.41-24.15-29.9-36.78Q71.86,164.4,60,144.91c-3.43-5.62-8.11-11.71-10.09-18-2.57-8.18,4.4-13.83,10.81-17.29,12.62-6.82,27.26-11.82,41.12-15.4a114.23,114.23,0,0,1,21.3-3.6c4.24-.27,8.41-.21,12.2,2,3.55,2.07,6.36,5.43,9.08,8.45,18.71,20.86,32.06,45.8,44.12,70.91,3.41,7.11,7.52,14.33,10.13,21.76,3.84,10.93-7.38,16.36-15.57,20.43a89.37,89.37,0,0,1-22.72,7.57c-6.89,1.34-13.71,2.36-19.55,6.52-1.56,1.11-.06,3.71,1.51,2.59,6.78-4.84,15.09-5.24,23-7.09a89.27,89.27,0,0,0,22.43-8.63c5.34-2.93,12.38-6.69,14.47-12.88,2.27-6.73-2.79-14.24-5.53-20.08-13.84-29.6-28.58-59.43-50.7-83.85-4.43-4.89-9.1-9.73-16-10.61-8.22-1.06-17.39.91-25.38,2.76a189.79,189.79,0,0,0-25.48,8.06c-7.09,2.73-14.6,5.37-21.18,9.21-4.63,2.7-9.42,6.44-11.07,11.78-2,6.38,1.73,12,4.81,17.36a477.43,477.43,0,0,0,29.64,45.09c5.94,8,12.14,15.81,18.49,23.49s12.33,15.72,19.41,22.58c4.72,4.58,10.61,8.44,17.41,8.37,5.85-.06,11.45-2.78,14-8.22H148c2.55,4.19,6.65,10.27,7,15.29l.49,1.66-3.38-.22c-.62-.46-1.12-2-1.48-2.68-1.4-2.57-2.78-5.14-4.17-7.71-.92-1.7-3.51-.19-2.59,1.51Z"/><path d="M155.4,200.06a10.74,10.74,0,0,0-.22,11.72c2.15,3.43,6.66,5.47,10.28,3,7.27-5,4.58-20.06-5.6-17.42a1.5,1.5,0,0,0,.8,2.89c7.22-1.87,8,10.74,2.2,12.53-2.93.91-5.42-2.3-6.07-4.72a7.69,7.69,0,0,1,1.2-6.49c1.09-1.6-1.51-3.1-2.59-1.51Z"/><path d="M69.93,120.56c-9.11,1.3-11.55,11.83-8.73,19.33,1.83,4.87,5.25,9,8.4,13l13.92,18C91.37,181,98.8,193.42,109,201.41c9.95,7.79,21.07,6.24,32.38,2.46,6.43-2.15,12.82-4.4,19.22-6.61,5.23-1.8,11.32-3.13,15.83-6.53,9.39-7.08.61-15.77-4.49-22.33a332.5,332.5,0,0,1-23-33.65q-5-8.45-9.6-17.19c-2.68-5.15-4.73-11.88-8.57-16.31s-8.8-3.5-14-2.68a112,112,0,0,0-19.35,4.89,116.83,116.83,0,0,0-35.3,19.91c-1.5,1.22.64,3.33,2.12,2.12a111.91,111.91,0,0,1,55-24.28c4.17-.58,7.78-.49,10.33,3.56a56,56,0,0,1,2.76,5.5q3.7,7.66,7.78,15.12,7.31,13.34,15.81,26c5.75,8.54,12,16.65,18.34,24.75,2.13,2.72,4.8,6.34,2.67,9.86-1.17,1.94-3.5,3.24-5.49,4.19-5.14,2.44-10.88,3.92-16.25,5.77-10.65,3.66-23.89,10.56-35.38,7.71C110.3,201.3,104,192.54,98.36,185.2q-12.12-15.63-24.22-31.28c-3.82-4.93-8.75-10.17-10.57-16.31-1.72-5.8.4-13.19,7.15-14.16,1.9-.27,1.09-3.16-.8-2.89Z"/><path d="M36.05,145.21a65.57,65.57,0,0,1,15.32,16C55.28,167,58,173.49,62,179.31c7.41,11,16.94,20.48,22.85,32.5.85,1.73,3.44.21,2.59-1.51-6.4-13-17.09-23-24.65-35.29-4-6.44-7-13.33-11.67-19.34a70.16,70.16,0,0,0-13.5-13.05c-1.55-1.16-3,1.45-1.51,2.59Z"/><path d="M98.56,229.44l9.4,7.92c1.47,1.24,3.6-.88,2.12-2.12l-9.4-7.92c-1.47-1.24-3.6.88-2.12,2.12Z"/><path d="M155.12,251.08c4.64,6.37,9.4,13,11.83,20.6,2.86,8.91,1,17-4,24.74-9,14.12-20.17,27.19-30.22,40.61-8.75,11.69-17.56,23.85-21.64,38.06a64.17,64.17,0,0,0,11.06,56.22c4.1,5.28,9.13,10.91,16.26,11.15,1.93.07,1.93-2.93,0-3-7.65-.26-13.69-9.05-17.36-15a61.93,61.93,0,0,1-7.83-19.26c-3.18-14.27-.88-28.65,5.66-41.63,6.77-13.43,16.57-25.22,25.56-37.19l14.41-19.19c4-5.39,8.41-10.81,10.8-17.19,5.56-14.86-3.49-28.86-11.95-40.48-1.13-1.55-3.73,0-2.59,1.51Z"/><path d="M223,129.88c-5.69-3.77-8.31-9.87-9.62-16.37-1.25-6.23-2.73-14.5-1.09-20.79,2.91-11.24,17.33-18.7,26.91-23.46,1.73-.86.21-3.45-1.51-2.59C226.88,72,210.94,80.68,209,94c-1.07,7.48.23,16.71,2.35,23.94,1.74,5.94,4.91,11,10.13,14.5,1.61,1.07,3.12-1.53,1.51-2.59Z"/><path d="M614.52,257.2a135.66,135.66,0,0,0-1.93,18c-.14,3.11-.2,6.22-.24,9.32,0,2.2-.66,5.46.44,7.54,3.59,6.82,12.72.07,14.78-4.37,2.17-4.69,1.66-10.24,1.54-15.25-.15-6.48-.23-13-.46-19.46-.36-10.29-10,.79-12.92,4.15-1.25,1.46.86,3.59,2.12,2.12.94-1.1,6.95-8.33,8.31-7.74-.38-.16-.36,8.21-.35,8.89.17,7,1.07,14.56.14,21.55-.45,3.38-3.05,10.71-7.92,9.78-4.11-.79-2.69-8-2.62-10.93a147,147,0,0,1,2-22.76c.34-1.89-2.55-2.7-2.89-.8Z"/><path d="M631.31,255.44c1.58-8.76,13.67-8.81,17.57-16.27,1.54-3,1.65-6.28,2.46-9.43a16,16,0,0,1,1.41-4q4.19-2.69,5.84,1.19c1.45,2.48,1.57,5.37,1.62,8.16.07,4.62-1.52,12,4.63,13.08,4,.72,8.79-.59,13-.18,3.13.3,9.27.82,8.11,6.12-.72,3.29-4.92,4.72-7.61,5.76a1.5,1.5,0,0,0,.8,2.89c5-1.08,7.54,5.25,4.32,8.53a8.12,8.12,0,0,1-7.7,1.84V276c3.55-1.36,9.34,1.11,8.23,5.9-.84,3.64-5.62,4.94-8.54,3.26l-.76,2.8a16,16,0,0,1,2.68-.15q4.89,6.68-.91,7.48c-2.36.55-5,.24-7.4.15l-14.26-.54c-8.57-.32-24.69,1.42-26.3-10.22-.26-1.9-3.15-1.09-2.89.8.94,6.78,7,10.42,13.26,11.5,9.47,1.63,19.66,1.06,29.24,1.42,5.51.21,13.5.9,15.66-5.68,2-6.14-4.19-8.25-9.07-7.77a1.51,1.51,0,0,0-.76,2.8c5,2.92,12.48,0,13.12-6.15.66-6.37-6.57-10.6-12.09-8.49-1.27.48-1.57,2.54,0,2.89,5.39,1.2,12.4-1.28,13-7.54a8.08,8.08,0,0,0-9.66-8.62l.8,2.89c3.92-1.51,8.42-3.43,9.7-7.85,1-3.58-.7-6.71-3.92-8.32-5.08-2.54-11-1.31-16.37-1.65-2.82-.18-4.8,0-5.42-3.08a25.91,25.91,0,0,1,0-5.07,27.81,27.81,0,0,0-.72-8.32c-.92-3.15-3.46-7.32-7.15-7.58s-5.55,3.65-6.46,6.58-1,6.25-2.11,9.18c-1.65,4.2-5.28,5.86-9,7.82-4.37,2.31-8.4,5.08-9.33,10.22-.34,1.89,2.55,2.7,2.89.8Z"/><path d="M445.77,355.31l21-14.94c1.56-1.11.06-3.71-1.51-2.59l-21,14.94c-1.56,1.11-.06,3.71,1.51,2.59Z"/><path d="M231,476.61l22.89-58.44c.7-1.8-2.2-2.58-2.89-.8L228.1,475.81c-.7,1.8,2.2,2.58,2.89.8Z"/><path d="M224.33,474.12c1.32-9.57-12.72-13.38-19.28-16.49q-18.56-8.8-37.39-17c-5.57-2.43-12.47-4.27-17.35-7.94-6.47-4.86-2.38-15.24-1.11-21.89l8.1-42.37c.36-1.89-2.53-2.69-2.89-.8L146.49,409c-1.73,9-6.48,21.09,3.35,27,5.29,3.16,11.55,5.13,17.19,7.6q9.19,4,18.32,8.18,9.56,4.36,19.06,8.87c4.31,2,17.94,6.17,17,12.69-.26,1.89,2.63,2.7,2.89.8Z"/></svg>